<svg width="617" height="581" viewBox="0 0 617 581" fill="none" xmlns="http://www.w3.org/2000/svg">
<g clip-path="url(#clip0)">
<path d="M523.605 514.132H508.035H470.89H455.318C434.797 514.132 418.164 530.134 418.164 549.87V561.699C418.164 567.259 422.847 571.766 428.627 571.766H550.296C556.076 571.766 560.759 567.259 560.759 561.699V549.87C560.759 530.134 544.126 514.132 523.605 514.132Z" fill="#FFCF59"/>
<path d="M523.605 514.132H508.035H470.89H455.318C434.797 514.132 418.164 530.134 418.164 549.87V561.699C418.164 567.259 422.847 571.766 428.627 571.766H550.296C556.076 571.766 560.759 567.259 560.759 561.699V549.87C560.759 530.134 544.126 514.132 523.605 514.132Z" fill="#FFCF59"/>
<path d="M508.035 514.132H502.844H470.89H457.134H455.32C434.8 514.132 418.164 530.134 418.164 549.87V561.699C418.164 567.259 422.85 571.766 428.627 571.766H476.15C470.373 571.766 465.687 567.259 465.687 561.699V549.87C465.687 549.704 465.69 549.539 465.693 549.37C465.747 545.606 470.026 543.304 473.418 545.181C478.417 547.942 484.251 549.46 490.461 549.279C508.03 548.767 521.789 534.476 521.789 517.568V514.132H508.035Z" fill="#FFB55C"/>
<path d="M161.68 514.132H146.109H108.963H93.3922C72.8734 514.132 56.2386 530.134 56.2386 549.87V566.719C56.2386 569.505 58.5872 571.763 61.4854 571.763H193.587C196.485 571.763 198.834 569.505 198.834 566.719V549.87C198.835 530.134 182.2 514.132 161.68 514.132Z" fill="#C3DA40"/>
<path d="M146.109 514.132H141.062H108.963H97.5568H93.3922C72.8734 514.132 56.2386 530.134 56.2386 549.87V566.719C56.2386 569.505 58.5872 571.763 61.4854 571.763H109.156C106.258 571.763 103.909 569.505 103.909 566.719V549.87C103.909 549.829 103.909 549.788 103.909 549.748C103.926 544.85 109.425 541.651 113.959 543.882C118.533 546.128 123.78 547.28 129.331 546.965C145.28 546.065 157.517 532.918 157.517 517.549V514.132H146.109Z" fill="#ADBC15"/>
<path d="M509.133 255.375H427.681V304.706V374.773H564.151H592.016V335.1C592.016 291.139 554.834 255.375 509.133 255.375Z" fill="#3F2725"/>
<path d="M564.151 419.869V373.611H584.512C597.771 373.611 608.558 383.988 608.558 396.742C608.558 409.492 597.771 419.869 584.512 419.869H564.151Z" fill="#DBAE6E"/>
<path d="M489.463 524.324C478.033 524.324 468.732 515.381 468.732 504.383V468.236L479.639 469.62C483.003 470.048 486.307 470.263 489.463 470.263C492.616 470.263 495.923 470.048 499.287 469.62L510.194 468.236V504.383C510.194 515.381 500.893 524.324 489.463 524.324Z" fill="#FAD393"/>
<path d="M489.116 504.386V470.257C486.065 470.241 482.881 470.032 479.639 469.62L468.732 468.236V504.383C468.732 515.381 478.03 524.324 489.46 524.324C493.168 524.324 496.639 523.375 499.653 521.729C493.373 518.299 489.116 511.814 489.116 504.386Z" fill="#EDB769"/>
<path d="M557.705 331.17L551.948 333.516C543.375 337.014 533.782 338.86 524.203 338.86C503.475 338.86 484.402 330.626 473.185 316.832L469.329 312.09L463.256 313.546C461.601 313.94 459.904 314.143 458.201 314.152H458.067L444.089 314.599H413.436V348.95V413.241L413.444 414.056L413.563 414.762C413.626 455.357 448.315 488.293 490.68 487.65C532.309 487.019 565.357 453.595 565.357 413.547V336.046C565.357 332.254 561.336 329.689 557.705 331.17Z" fill="#FAD393"/>
<path d="M557.705 331.17L551.948 333.516C543.375 337.014 533.782 338.86 524.203 338.86C503.475 338.86 484.402 330.626 473.185 316.832L469.329 312.09L463.256 313.546C461.601 313.94 459.904 314.143 458.201 314.152H458.067L444.089 314.599H413.436V343.543V348.95V413.244L413.444 414.056L413.563 414.765C413.626 455.36 448.315 488.296 490.68 487.65C499.983 487.509 508.852 485.719 517.023 482.595C488.886 471.934 468.906 445.561 468.857 414.765L468.738 414.056L468.73 413.244V348.953L468.875 347.038C469.034 344.917 471.823 344.102 473.185 345.773C484.402 359.567 503.475 367.804 524.203 367.804C533.779 367.804 543.375 365.955 551.948 362.463L557.705 360.114C561.336 358.633 565.357 361.198 565.357 364.99V336.046C565.357 332.254 561.336 329.689 557.705 331.17Z" fill="#EDB769"/>
<path d="M498.488 183.882L479.685 99.9636H332.719L316.08 125.426C313.049 130.064 305.924 129.768 303.32 124.898L289.99 99.9636H155.821L131.87 176.317L129.121 184.204C126.746 191.019 116.541 190.473 114.968 183.446L96.2625 99.9614H69.017C43.0092 99.9614 21.125 80.2636 20.5104 55.2534C19.8777 29.491 41.48 8.33849 68.1242 8.33849H549.525C575.533 8.33849 597.415 28.0362 598.032 53.0466C598.663 78.8102 577.063 99.9626 550.418 99.9626H539.244L515.295 176.316L512.701 184.461C510.484 191.429 500.083 191.005 498.488 183.882Z" fill="#FFCF59"/>
<path d="M45.2278 89.7236C44.5952 63.9613 66.1973 42.8075 92.8415 42.8075H574.242C582.69 42.8075 590.694 44.8963 597.685 48.5594C594.743 25.7214 573.955 8.33972 549.525 8.33972H68.1242C41.4812 8.33972 19.8777 29.4933 20.5104 55.2559C20.925 72.1424 31.0439 86.5975 45.5736 94.212C45.3845 92.7364 45.2651 91.2398 45.2278 89.7236Z" fill="#FFB55C"/>
<path d="M345.654 489.989H326.023H290.613H270.983C247.098 489.989 227.736 508.616 227.736 531.59V562.577C227.736 568.137 232.42 572.641 238.199 572.641L378.411 572.66C384.189 572.663 388.875 568.159 388.878 562.602L388.898 531.587C388.9 508.65 369.498 489.989 345.654 489.989Z" fill="#31D2F7"/>
<path d="M290.132 572.641C284.355 572.638 279.67 568.134 279.67 562.577V531.587C279.67 531.534 279.67 531.478 279.67 531.424C279.696 525.13 286.885 521.119 292.577 524.221C297.621 526.97 303.516 528.441 309.779 528.173C327.024 527.432 340.382 513.304 340.382 496.699V489.992H326.023H322.916H290.613H276.255H270.984C247.1 489.992 227.738 508.616 227.738 531.59V562.577C227.738 568.137 232.422 572.644 238.2 572.644L378.414 572.663C378.46 572.663 378.505 572.657 378.551 572.654L290.132 572.641Z" fill="#13ACE8"/>
<path d="M181.951 251.802C173.788 248.802 165.441 247.28 157.137 247.28C142.029 247.28 132.328 252.386 132.269 252.42C130.227 253.313 128.295 254.386 126.523 255.612C123.428 257.758 119.692 258.892 115.723 258.892C111.867 258.892 108.128 257.814 104.903 255.774C95.2782 249.684 83.7409 246.465 71.5419 246.465C41.4425 246.465 16.9554 266.487 16.9554 291.099C16.9554 291.961 16.994 292.869 17.0784 293.87C16.9964 294.975 16.9554 295.953 16.9554 296.863C16.9554 302.725 18.2292 308.465 20.7406 313.934C20.4417 315.124 20.1706 316.301 19.9344 317.445C18.7076 323.351 18.0858 329.424 18.0858 335.496V380.411H190.859V304.706V252.373L181.951 251.802Z" fill="#F49E2C"/>
<path d="M181.951 251.802C173.788 248.802 165.441 247.28 157.137 247.28C142.029 247.28 132.328 252.386 132.269 252.42C130.227 253.313 128.295 254.386 126.523 255.612C123.428 257.758 119.692 258.892 115.723 258.892C111.867 258.892 108.128 257.814 104.903 255.774C95.2782 249.684 83.7409 246.465 71.5419 246.465C41.4425 246.465 16.9554 266.487 16.9554 291.099C16.9554 291.961 16.994 292.869 17.0784 293.87C16.9964 294.975 16.9554 295.953 16.9554 296.863C16.9554 302.725 18.2292 308.465 20.7406 313.934C20.4417 315.124 20.1706 316.301 19.9344 317.445C18.7076 323.351 18.0858 329.424 18.0858 335.496V380.411H190.859V304.706V252.373L181.951 251.802Z" fill="#F49E2C"/>
<path d="M92.6811 317.442C92.9174 316.301 93.1886 315.121 93.4875 313.931C90.976 308.463 89.7022 302.722 89.7022 296.861C89.7022 295.952 89.742 294.973 89.8253 293.868C89.742 292.868 89.7022 291.959 89.7022 291.097C89.7022 277.719 96.9472 265.705 108.386 257.518C107.176 257.049 106.008 256.472 104.903 255.772C95.2782 249.682 83.7409 246.463 71.5419 246.463C41.4425 246.463 16.9554 266.485 16.9554 291.097C16.9554 291.959 16.994 292.866 17.0784 293.868C16.9964 294.973 16.9554 295.951 16.9554 296.861C16.9554 302.723 18.2292 308.463 20.7406 313.931C20.4417 315.121 20.1706 316.301 19.9344 317.442C18.7064 323.352 18.0846 329.424 18.0846 335.496V380.411H90.8301V335.496C90.8315 329.424 91.4534 323.348 92.6811 317.442Z" fill="#E88815"/>
<path d="M32.4852 419.869C19.227 419.869 8.44034 409.496 8.44034 396.742C8.44034 383.988 19.227 373.614 32.4852 373.614H52.8462V419.869H32.4852Z" fill="#DBAE6E"/>
<path d="M410.905 213.354L407.939 210.102C407.829 196.295 397.047 182.837 378.323 173.144C360.027 163.671 335.503 158.454 309.271 158.454C283.039 158.454 258.514 163.67 240.217 173.144C221.495 182.838 210.715 196.296 210.601 210.102L207.665 213.323C196.05 224.494 189.654 239.323 189.654 255.08V305.234H215.614H402.927H428.889V255.08C428.889 239.326 422.491 224.497 410.905 213.354Z" fill="#353535"/>
<path d="M301.321 213.324L304.258 210.103C304.369 196.299 315.151 182.838 333.874 173.146C340.527 169.699 348.014 166.826 356.1 164.552C341.954 160.575 325.961 158.455 309.271 158.455C283.039 158.455 258.514 163.671 240.217 173.146C221.495 182.839 210.715 196.297 210.601 210.103L207.665 213.324C196.05 224.495 189.654 239.325 189.654 255.081V305.235H215.614H283.311V255.081C283.31 239.325 289.706 224.494 301.321 213.324Z" fill="#302A21"/>
<path d="M127.537 530.125C116.105 530.125 106.806 521.179 106.806 510.184V475.195L117.714 476.579C121.078 477.007 124.382 477.223 127.537 477.223C130.692 477.223 133.997 477.007 137.359 476.579L148.268 475.195V510.184C148.268 521.179 138.968 530.125 127.537 530.125Z" fill="#FAD393"/>
<path d="M126.059 510.184V477.198C123.354 477.142 120.557 476.938 117.712 476.579L106.804 475.195V510.184C106.804 521.179 116.103 530.125 127.534 530.125C131.01 530.125 134.282 529.288 137.162 527.829C130.571 524.487 126.059 517.836 126.059 510.184Z" fill="#EDB769"/>
<path d="M174.588 314.399L158.796 314.152C157.089 314.143 155.388 313.937 153.742 313.546L147.669 312.09L143.812 316.832C132.594 330.626 113.522 338.86 92.7946 338.86C83.2166 338.86 73.6229 337.014 65.0512 333.519L56.5158 330.036C54.203 329.096 51.6398 330.726 51.6398 333.144V413.547C51.6398 453.608 84.7133 487.04 126.357 487.653C168.743 488.274 203.433 455.288 203.433 414.656V349.144V315.074L174.588 314.399Z" fill="#FAD393"/>
<path d="M174.588 314.399L158.796 314.152C157.089 314.143 155.388 313.937 153.742 313.546L147.669 312.09L143.812 316.832C134.637 328.115 120.203 335.671 103.909 338.051C103.9 338.051 103.892 338.055 103.883 338.055C102.907 338.198 101.924 338.317 100.936 338.423C100.487 338.47 100.033 338.507 99.5815 338.548C98.8511 338.611 98.1172 338.667 97.3796 338.71C96.987 338.735 96.5952 338.76 96.1999 338.776C95.0697 338.826 93.9355 338.86 92.7931 338.86C83.2154 338.86 73.6217 337.014 65.05 333.519L56.5143 330.036C54.2019 329.096 51.6386 330.726 51.6386 333.144V361.351V413.525C51.6386 453.093 83.8961 486.322 125.007 487.618C135.135 487.94 144.832 486.319 153.756 483.148C124.555 472.69 103.906 445.196 103.906 413.547V390.491C103.906 377.684 111.558 366.042 123.547 360.47C131.598 356.725 138.565 351.493 143.81 345.039C146.155 342.156 150.045 340.869 153.738 341.753C155.385 342.147 157.086 342.35 158.792 342.359L174.583 342.609L203.428 343.28V315.071L174.588 314.399Z" fill="#EDB769"/>
<path d="M194.542 350.109C181.347 350.109 170.611 339.785 170.611 327.091C170.611 314.399 181.346 304.072 194.542 304.072H215.616V350.109H194.542Z" fill="#93682A"/>
<path d="M308.318 501.465C296.436 501.465 286.766 492.166 286.766 480.737V434.663L297.607 435.962C301.676 436.453 305.492 436.687 309.268 436.687C312.523 436.687 315.867 436.515 319.205 436.178L329.865 435.091V480.737C329.868 492.169 320.2 501.465 308.318 501.465Z" fill="#A07530"/>
<path d="M308.318 480.74V436.675C304.849 436.64 301.338 436.412 297.607 435.966L286.766 434.663V480.74C286.766 492.166 296.433 501.469 308.318 501.469C312.245 501.469 315.918 500.435 319.091 498.664C312.663 495.071 308.318 488.39 308.318 480.74Z" fill="#825211"/>
<path d="M402.927 350.109V304.073H424.001C437.194 304.073 447.931 314.399 447.931 327.091C447.931 339.785 437.197 350.112 424.001 350.112L402.927 350.109Z" fill="#93682A"/>
<path d="M308.332 451.765C256.11 451.278 214.408 409.593 214.408 359.358V255.082C214.408 251.764 214.89 248.472 215.841 245.297C217.699 239.091 225.413 236.564 230.823 240.389C249.379 253.507 277.972 261.031 309.271 261.031C340.052 261.031 369.381 253.311 387.726 240.381C393.134 236.567 400.84 239.097 402.696 245.297C403.649 248.476 404.132 251.769 404.132 255.079V360.523C404.132 411.132 361.067 452.255 308.332 451.765Z" fill="#A07530"/>
<path d="M402.696 245.294C401.053 238.969 394.891 236.44 389.006 239.675L387.726 240.378C369.381 253.309 340.049 261.029 309.271 261.029C277.972 261.029 249.379 253.505 230.823 240.386C225.414 236.562 217.699 239.091 215.841 245.294C214.891 248.468 214.408 251.76 214.408 255.08V359.355C214.408 408.14 253.765 449.175 304.414 451.649C316.33 452.23 327.786 450.647 338.434 447.326C302.998 433.023 278.227 398.925 278.227 359.72V324.273C278.227 307.995 292.026 294.974 308.949 295.002C309.057 295.002 309.162 295.002 309.271 295.002C340.848 295.002 370.936 287.082 389.753 273.818C394.61 270.394 401.269 271.956 404.132 276.663V255.075C404.132 252.733 403.649 248.957 403.057 246.684L402.696 245.294Z" fill="#825211"/>
<path d="M600.455 369.532V335.1C600.455 286.585 559.571 247.257 509.133 247.257H436.839C435.05 232.386 428.201 218.599 417.061 207.792L416.213 206.863C413.114 174.897 367.257 150.335 309.271 150.335C251.283 150.335 205.426 174.897 202.326 206.864L201.481 207.791C191.338 217.629 184.753 229.94 182.301 243.289C153.399 233.709 131.824 243.493 128.521 245.14C126.065 246.233 123.737 247.537 121.594 249.021C118.166 251.395 113.323 251.382 109.544 248.99C98.5377 242.024 85.3965 238.343 71.543 238.343C36.7897 238.343 8.51747 262.007 8.51747 291.095C8.51747 291.983 8.55003 292.893 8.6175 293.918C8.55003 294.97 8.51747 295.937 8.51747 296.858C8.51747 302.94 9.66108 308.904 11.9206 314.627C11.8302 315.039 11.7423 315.445 11.6591 315.852C10.3263 322.28 9.64906 328.89 9.64906 335.496V374.545C3.55981 380.343 -0.165093 388.433 0.00964326 397.342C0.345859 414.472 15.3527 427.988 33.1636 427.988H44.3637C49.3697 456.975 70.3909 480.818 98.3691 490.77V506.013H93.3933C68.2132 506.013 47.7993 525.649 47.7993 549.87V563.276C47.7993 572.447 55.5286 579.882 65.0645 579.882H190.009C199.544 579.882 207.274 572.447 207.274 563.276V549.87C207.274 525.649 186.861 506.013 161.68 506.013H156.707V490.77C188.738 479.375 211.675 449.781 211.87 415.1C211.896 410.589 208.578 406.541 203.918 406.016C198.437 405.401 193.785 409.505 193.785 414.653C193.785 450.122 163.505 478.916 126.505 478.372C90.1542 477.841 61.2854 448.657 61.2854 413.688V342.059C70.9945 346.02 81.7716 348.138 92.792 348.138C116.69 348.138 138.443 338.492 151.409 322.546C153.793 323.117 156.256 323.417 158.745 323.43L162.386 323.545C162.249 324.71 162.171 325.891 162.171 327.09C162.171 344.261 176.692 358.23 194.542 358.23H205.969V360.52C205.969 404.948 236.438 442.65 278.33 455.329V479.581C278.33 480.353 278.371 481.115 278.434 481.871H270.987C242.441 481.871 219.301 504.13 219.301 531.59V563.364C219.301 572.982 227.407 580.778 237.406 580.778H296.058C301.053 580.778 305.102 576.883 305.102 572.079V572.069C305.102 567.265 301.053 563.37 296.06 563.37L237.385 563.364V531.587C237.385 513.738 252.428 499.27 270.984 499.27H286.43C291.906 504.898 299.691 508.425 308.321 508.425C316.947 508.425 324.733 504.898 330.209 499.27H345.654C364.181 499.27 379.253 513.766 379.253 531.587L379.236 563.383L354.903 563.376C349.907 563.376 345.858 567.271 345.858 572.079C345.858 576.883 349.907 580.778 354.903 580.778H379.236C389.236 580.778 397.339 572.978 397.339 563.361V531.587C397.339 504.13 374.201 481.871 345.656 481.871H338.207C338.27 481.115 338.309 480.353 338.309 479.578V455.86C381.175 443.762 412.577 405.613 412.577 360.517V358.227H424.004C441.852 358.227 456.375 344.258 456.375 327.087C456.375 325.872 456.293 324.673 456.151 323.492L458.258 323.426C460.745 323.414 463.211 323.114 465.593 322.542C478.559 338.489 500.31 348.135 524.208 348.135C535.229 348.135 546.008 346.017 555.718 342.056V413.622C555.718 449.172 525.926 478.638 488.971 478.375C452.742 478.119 423.333 449.744 423.216 414.859C423.202 410.826 420.501 407.159 416.424 406.216C410.456 404.829 405.13 409.143 405.13 414.653C405.13 449.522 428.127 479.322 460.296 490.767V506.01H455.323C430.143 506.01 409.728 525.646 409.728 549.87V563.273C409.728 572.444 417.459 579.882 426.992 579.882H551.939C561.473 579.882 569.204 572.444 569.204 563.273V549.867C569.204 525.646 548.792 506.01 523.608 506.01H518.635V490.77C546.616 480.815 567.634 456.972 572.641 427.988H583.853C601.783 427.988 616.832 414.284 617 397.038C617.111 385.256 610.403 374.945 600.455 369.532ZM116.451 495.056C120.082 495.515 123.777 495.777 127.537 495.777C131.297 495.777 134.991 495.515 138.622 495.056V506.704C138.622 512.583 133.649 517.368 127.537 517.368C121.425 517.368 116.451 512.583 116.451 506.704V495.056ZM127.537 534.764C137.12 534.764 145.637 530.294 150.959 523.409H161.681C176.85 523.409 189.19 535.279 189.19 549.87V562.486H65.8851V549.87C65.8851 535.279 78.2251 523.409 93.3922 523.409H104.115C109.435 530.294 117.953 534.764 127.537 534.764ZM478.377 495.056C482.008 495.515 485.701 495.777 489.463 495.777C493.222 495.777 496.915 495.515 500.546 495.056V506.704C500.546 512.583 495.573 517.368 489.46 517.368C483.35 517.368 478.377 512.583 478.377 506.704V495.056ZM523.605 523.409C538.775 523.409 551.115 535.279 551.115 549.87V562.486H427.808V549.87C427.808 535.279 440.151 523.409 455.318 523.409H466.04C471.36 530.294 479.878 534.764 489.463 534.764C499.045 534.764 507.564 530.294 512.883 523.409H523.605ZM43.1997 410.589H32.4841C24.5438 410.589 18.0846 404.376 18.0846 396.742C18.0846 389.104 24.5438 382.891 32.4841 382.891H43.1997V410.589ZM170.384 306.394L159.211 306.037C159.111 306.035 159.01 306.032 158.91 306.032C156.648 306.032 154.453 305.474 152.562 304.414C148.267 302.008 142.75 303.392 140.221 307.515C131.577 321.624 112.961 330.739 92.7931 330.739C79.7494 330.739 67.2396 327.003 57.5678 320.222C53.5294 317.392 47.8752 318.244 44.9324 322.127C43.5033 324.011 42.985 326.263 43.2838 328.406C43.2346 328.774 43.1997 329.146 43.1997 329.53V365.493H32.4841C30.8693 365.493 29.2833 365.611 27.7312 365.83V335.496C27.7312 330.033 28.2904 324.57 29.3942 319.256C29.6183 318.179 29.8762 317.06 30.1619 315.93C30.6368 314.055 30.4499 312.082 29.6305 310.32C27.6216 306 26.6033 301.47 26.6033 296.858C26.6033 296.173 26.6346 295.412 26.7009 294.53C26.7322 294.108 26.7322 293.685 26.6997 293.262C26.6334 292.41 26.6033 291.719 26.6033 291.093C26.6033 271.598 46.7629 255.737 71.543 255.737C81.8534 255.737 91.5568 258.429 99.6031 263.521C109.606 269.854 122.691 269.699 132.162 263.137C133.415 262.271 134.794 261.505 136.263 260.863C136.488 260.764 136.71 260.657 136.926 260.541C137.095 260.449 154.613 251.652 178.578 260.493C179.444 260.813 180.332 260.995 181.212 261.051V298.726C177.064 300.539 173.38 303.163 170.384 306.394ZM205.968 340.831H194.54C186.664 340.831 180.256 334.668 180.256 327.09C180.256 319.516 186.664 313.353 194.54 313.353H205.968V340.831ZM320.223 479.578C320.223 485.894 314.883 491.029 308.321 491.029C301.756 491.029 296.416 485.894 296.416 479.578V459.09C300.633 459.593 304.915 459.886 309.271 459.886C312.973 459.886 316.623 459.687 320.223 459.321V479.578ZM394.488 360.52C394.488 405.719 356.259 442.491 309.271 442.491C262.28 442.491 224.053 405.719 224.053 360.52V255.081C224.053 252.619 224.41 250.193 225.107 247.864C245.134 262.022 275.838 270.309 309.268 270.309C342.452 270.309 373.384 261.99 393.424 247.864C394.124 250.198 394.482 252.629 394.482 255.081L394.488 360.52ZM406.72 233.693C405.127 230.996 402.165 229.318 398.94 229.288L392.028 229.225C391.997 229.225 391.968 229.225 391.94 229.225C389.796 229.225 387.72 229.957 386.083 231.295C369.773 244.628 340.339 252.911 309.271 252.911C276.923 252.911 246.898 244.122 230.912 229.974C229.264 228.515 227.113 227.698 224.875 227.677L220.811 227.64C217.721 227.597 214.8 229.119 213.12 231.631C208.442 238.624 205.969 246.734 205.969 255.081V295.956H199.3V255.081C199.3 241.804 204.693 229.303 214.487 219.885C214.626 219.751 214.762 219.613 214.89 219.47L218.002 216.058C219.449 214.471 220.247 212.432 220.247 210.321C220.247 189.754 256.018 167.732 309.271 167.732C362.523 167.732 398.295 189.753 398.295 210.321C398.295 212.432 399.091 214.471 400.538 216.058L403.654 219.473C403.782 219.615 403.916 219.753 404.055 219.886C413.848 229.305 419.239 241.803 419.239 255.08V295.954H412.571V255.08C412.571 247.581 410.55 240.186 406.72 233.693ZM424.001 340.831H412.571V313.353H424.001C431.877 313.353 438.283 319.516 438.283 327.09C438.283 334.668 431.877 340.831 424.001 340.831ZM572.067 322.127C569.124 318.247 563.466 317.395 559.431 320.225C549.758 327.006 537.251 330.742 524.205 330.742C504.035 330.742 485.42 321.627 476.776 307.517C474.251 303.393 468.732 302.008 464.436 304.416C462.545 305.474 460.35 306.035 458.087 306.035C457.987 306.035 457.888 306.036 457.786 306.039L448.113 306.349C445.124 303.138 441.456 300.532 437.328 298.73V264.656H509.133C549.514 264.656 582.368 296.257 582.368 335.1V365.496H573.796V329.533C573.796 329.152 573.762 328.777 573.713 328.406C574.012 326.266 573.494 324.014 572.067 322.127ZM584.512 410.589H573.799V382.888H584.512C592.454 382.888 598.911 389.101 598.911 396.739C598.911 404.376 592.454 410.589 584.512 410.589Z" fill="black"/>
<path d="M68.1242 108.081H89.4491L106.031 182.092C107.668 189.398 113.985 194.51 121.748 194.811C129.507 195.128 136.236 190.51 138.48 183.354L162.092 108.083H284.841L295.031 127.14C297.821 132.359 303.126 135.627 309.222 135.879C315.33 136.145 320.894 133.318 324.141 128.347L337.385 108.083H472.872L489.454 182.093C491.089 189.399 497.407 194.511 505.169 194.812C505.411 194.822 505.65 194.826 505.889 194.826C513.347 194.826 519.727 190.287 521.902 183.354L545.513 108.083H550.415C581.331 108.083 606.483 83.8895 606.483 54.1523C606.483 24.415 581.333 0.220871 550.418 0.220871H68.1242C37.2091 0.220871 12.058 24.4138 12.058 54.1511C12.058 83.8883 37.2091 108.081 68.1242 108.081ZM68.1242 17.6176H550.418C571.359 17.6176 588.396 34.0072 588.396 54.1511C588.396 74.2952 571.359 90.6844 550.418 90.6844H538.797C534.808 90.6844 531.291 93.1977 530.139 96.8699L506.059 173.635L489.011 97.5493C488.115 93.5432 484.433 90.6835 480.171 90.6835H332.384C329.276 90.6835 326.382 92.2203 324.727 94.7533L310.055 117.207L298.398 95.4046C296.848 92.5068 293.743 90.6844 290.357 90.6844H155.373C151.384 90.6844 147.868 93.1977 146.715 96.8699L122.636 173.635L105.59 97.5502C104.693 93.5441 101.011 90.6844 96.7496 90.6844H68.1242C47.1823 90.6844 30.1437 74.2952 30.1437 54.1511C30.1437 34.0072 47.1812 17.6176 68.1242 17.6176Z" fill="black"/>
</g>
<defs>
<clipPath id="clip0">
<rect width="617" height="581" fill="white"/>
</clipPath>
</defs>
</svg>
